<?xml version="1.0" encoding="UTF-8" standalone="no"?><!DOCTYPE svg PUBLIC "-//W3C//DTD SVG 1.1//EN" "http://www.w3.org/Graphics/SVG/1.1/DTD/svg11.dtd"><svg width="100%" height="100%" viewBox="0 0 2709 2709" version="1.1" xmlns="http://www.w3.org/2000/svg" xmlns:xlink="http://www.w3.org/1999/xlink" xml:space="preserve" xmlns:serif="http://www.serif.com/" style="fill-rule:evenodd;clip-rule:evenodd;stroke-linejoin:round;stroke-miterlimit:2;"><g id="Layer-1" serif:id="Layer 1"><path id="rect2987" d="M1564.58,353.356c-0,-33.925 -27.501,-61.425 -61.425,-61.425c-0.002,-0 -0.003,-0 -0.004,-0c-183.493,-0 -332.244,148.75 -332.244,332.243c0,516.398 0,1478.58 0,1730.55c0,34.067 27.617,61.684 61.684,61.684l0.001,-0c88.049,-0 172.491,-34.977 234.751,-97.237c62.259,-62.26 97.237,-146.702 97.237,-234.751l-0,-1731.06Z" style="fill:#79abad;"/><path d="M1170.8,1722.57c0,-51.586 -41.818,-93.404 -93.404,-93.404c0,-10.139 0,-16.871 0,-16.871l116.325,-0l-0,110.275l-22.921,-0Z" style="fill:#79abad;"/><path d="M1564.78,1722.47c0,-51.586 41.818,-93.405 93.404,-93.405c0,-11.194 0,-18.754 0,-18.754l-124.858,0l-0,112.159l31.454,-0Z" style="fill:#79abad;"/><path d="M1688.37,1343.78c51.586,0 93.404,-41.818 93.404,-93.404c5.189,0 8.337,0 8.337,0l0,99.859l-101.741,-0l0,-6.455Z" style="fill:#79abad;"/><path d="M1019.74,1343.78c-24.772,0 -48.53,-9.841 -66.047,-27.357c-17.516,-17.517 -27.357,-41.275 -27.357,-66.047l-12.504,0l0,110.275l105.908,0l0,-16.871Z" style="fill:#79abad;"/><path d="M1077.5,1343.78c51.586,0 93.404,-41.818 93.405,-93.404c13.49,0 22.92,0 22.92,0l0,108.192l-116.325,-0l0,-14.788Z" style="fill:#79abad;"/><path d="M1657.99,1343.78c-24.773,0 -48.53,-9.841 -66.047,-27.357c-17.517,-17.517 -27.357,-41.275 -27.357,-66.047c-5.189,0 -8.338,0 -8.338,0l0,101.942l101.742,-0l-0,-8.538Z" style="fill:#79abad;"/><path id="rect2991" d="M1741.05,1343.99l-950.243,-0l0,231.621c0,29.52 23.931,53.451 53.452,53.451c200.546,0 896.791,0 896.791,0l0,-285.072Z" style="fill:#79abad;"/><path id="rect2993" d="M926.557,899.931c0,-24.655 -19.987,-44.642 -44.641,-44.642c-0.002,0 -0.003,0 -0.005,0c-132.784,0 -240.427,107.643 -240.427,240.427c0,118.91 0,259.475 0,366.439c0,92.178 74.725,166.903 166.903,166.903l118.17,0l0,-729.127Z" style="fill:#79abad;"/><path id="rect2995" d="M1944.67,1343.99l-529.421,-0l-0,285.072l427.106,0c56.507,0 102.315,-45.808 102.315,-102.315c-0,-81.763 -0,-182.757 -0,-182.757Z" style="fill:#79abad;"/><path id="rect2997" d="M2066.85,567.3c0,-24.63 -19.966,-44.596 -44.596,-44.596c-0.001,-0 -0.003,-0 -0.004,-0c-63.777,-0 -124.943,25.335 -170.04,70.433c-45.097,45.097 -70.433,106.262 -70.433,170.04l0,865.881l118.229,0c92.146,0 166.844,-74.698 166.844,-166.843l0,-894.915Z" style="fill:#79abad;"/></g></svg>